<svg id="SvgjsSvg1001" width="288" height="288" xmlns="http://www.w3.org/2000/svg" version="1.1" xmlns:xlink="http://www.w3.org/1999/xlink" xmlns:svgjs="http://svgjs.com/svgjs"><defs id="SvgjsDefs1002"></defs><g id="SvgjsG1008"><svg xmlns="http://www.w3.org/2000/svg" viewBox="0 0 32 32" width="288" height="288"><path d="M24,3H8A5,5,0,0,0,3,8V24a5,5,0,0,0,5,5h8a1,1,0,0,0,1-1V20a1,1,0,0,0-1-1H15V17h1a1,1,0,0,0,1-1V12.5A2.5,2.5,0,0,1,19.5,10H22v2H21a2,2,0,0,0-2,2v2a1,1,0,0,0,1,1h1.72l-.5,2H20a1,1,0,0,0-1,1v4a1,1,0,0,0,2,0V21h1a1,1,0,0,0,1-.76l1-4a1,1,0,0,0-.18-.86A1,1,0,0,0,23,15H21V14h2a1,1,0,0,0,1-1V9a1,1,0,0,0-1-1H19.5A4.51,4.51,0,0,0,15,12.5V15H14a1,1,0,0,0-1,1v4a1,1,0,0,0,1,1h1v6H8a3,3,0,0,1-3-3V8A3,3,0,0,1,8,5H24a3,3,0,0,1,3,3V24a3,3,0,0,1-3,3H20a1,1,0,0,0,0,2h4a5,5,0,0,0,5-5V8A5,5,0,0,0,24,3Z" data-name="facebook fb face book" fill="#ffffff" class="color000 svgShape"></path></svg></g></svg>