<?xml version="1.0" standalone="no"?>
<!DOCTYPE svg PUBLIC "-//W3C//DTD SVG 20010904//EN"
 "http://www.w3.org/TR/2001/REC-SVG-20010904/DTD/svg10.dtd">
<svg version="1.0" xmlns="http://www.w3.org/2000/svg"
 width="1078.000000pt" height="1083.000000pt" viewBox="0 0 1078.000000 1083.000000"
 preserveAspectRatio="xMidYMid meet">
<metadata>
Created by potrace 1.16, written by Peter Selinger 2001-2019
</metadata>
<g transform="translate(0.000000,1083.000000) scale(0.100000,-0.100000)"
fill="#000000" stroke="none">
<path d="M5130 10309 c-852 -74 -1579 -317 -2278 -761 -572 -362 -1080 -863
-1454 -1433 -227 -345 -412 -716 -540 -1085 -289 -832 -350 -1733 -177 -2595
278 -1384 1141 -2578 2378 -3292 147 -85 432 -224 586 -286 414 -165 787 -263
1240 -324 188 -25 224 -27 595 -27 264 -1 432 3 505 12 579 68 1016 184 1501
397 417 184 801 423 1179 736 138 114 481 459 602 605 647 782 1012 1656 1125
2689 17 159 17 780 0 930 -64 557 -183 1022 -378 1472 -53 124 -176 373 -223
451 -17 29 -31 55 -31 57 0 22 -217 347 -338 509 -207 274 -512 598 -752 797
-647 537 -1362 887 -2155 1054 -353 75 -553 95 -955 100 -179 2 -372 -1 -430
-6z m580 -99 c315 -15 571 -49 865 -116 139 -32 427 -113 478 -134 12 -5 78
-30 147 -55 149 -55 239 -94 420 -183 1156 -566 2054 -1602 2450 -2827 159
-495 232 -957 233 -1490 2 -1302 -516 -2527 -1454 -3440 -79 -77 -160 -153
-179 -170 -128 -110 -170 -143 -295 -237 -529 -396 -1120 -673 -1771 -829
-810 -193 -1695 -166 -2499 78 -911 275 -1701 803 -2326 1553 -83 100 -195
253 -286 390 -635 955 -904 2095 -767 3240 123 1030 583 2000 1299 2740 229
237 468 443 715 617 758 533 1672 838 2590 866 41 1 95 3 120 5 25 1 142 -2
260 -8z"/>
<path d="M5295 9652 c-6 -4 -37 -41 -69 -82 -98 -123 -109 -134 -118 -113 -3
10 -7 48 -7 85 -1 80 -7 98 -32 98 -23 0 -23 -4 -8 -235 13 -210 14 -215 41
-215 20 0 21 3 14 105 -4 58 -5 105 -2 105 3 0 52 -43 108 -95 66 -60 111 -95
126 -95 12 0 22 4 22 9 0 5 -45 50 -100 101 -55 51 -100 98 -100 105 0 7 36
57 80 111 44 55 80 105 80 112 0 13 -19 16 -35 4z"/>
<path d="M5740 9635 c0 -10 -7 -108 -16 -218 -9 -109 -12 -203 -7 -207 4 -5
63 -12 131 -15 107 -7 122 -6 122 8 0 18 -22 23 -132 32 l-78 7 1 31 c0 18 4
54 7 81 l7 49 78 -2 c71 -2 78 -1 75 16 -3 15 -15 19 -68 21 -36 2 -69 7 -74
12 -10 10 -9 110 0 141 4 14 18 15 99 11 82 -4 95 -3 95 11 0 21 -16 24 -137
32 -94 7 -103 6 -103 -10z"/>
<path d="M4456 9542 c-4 -6 -38 -197 -75 -425 -6 -37 -5 -50 5 -54 24 -9 33 7
40 68 4 32 12 63 18 67 15 9 146 41 171 41 13 0 32 -17 54 -49 31 -46 62 -63
74 -42 3 4 -36 64 -86 134 -51 70 -114 159 -142 198 -53 75 -51 74 -59 62z
m89 -178 c30 -44 51 -82 47 -86 -11 -11 -131 -33 -138 -25 -6 6 10 138 23 180
6 23 2 26 68 -69z"/>
<path d="M6851 9428 c-44 -117 -101 -294 -101 -314 0 -108 168 -200 269 -147
50 26 67 55 122 207 56 156 58 169 28 164 -16 -2 -27 -21 -50 -88 -65 -189
-80 -221 -113 -241 -83 -50 -206 14 -206 108 0 15 23 92 52 171 42 118 49 145
37 153 -22 13 -29 11 -38 -13z"/>
<path d="M3843 9352 c-8 -5 -14 -57 -18 -152 -3 -80 -8 -173 -11 -207 l-5 -62
-92 76 c-51 42 -120 101 -155 130 -63 52 -92 65 -92 41 0 -7 30 -102 67 -210
54 -159 71 -198 85 -198 10 0 18 7 18 14 0 8 -22 79 -50 158 -27 79 -50 147
-50 152 0 6 15 -4 33 -21 81 -76 260 -214 267 -207 5 5 12 91 16 192 4 100 10
182 13 182 4 0 19 -24 33 -52 61 -120 125 -232 134 -235 5 -1 15 1 22 6 11 6
-9 51 -88 197 -56 104 -105 192 -109 196 -3 4 -12 4 -18 0z"/>
<path d="M7547 9088 c-52 -95 -153 -280 -166 -305 -9 -19 -8 -24 8 -33 18 -9
24 -2 62 68 60 109 52 104 112 74 72 -38 128 -36 170 7 27 27 32 39 32 81 0
40 -5 54 -29 79 -24 25 -132 91 -149 91 -3 0 -21 -28 -40 -62z m96 -9 c12 -6
34 -23 50 -37 54 -51 25 -132 -48 -132 -33 0 -115 33 -115 46 0 14 73 134 82
134 5 0 19 -5 31 -11z"/>
<path d="M2439 8331 c-41 -41 -39 -83 5 -127 44 -44 86 -46 127 -5 16 16 29
39 29 51 0 53 -57 110 -110 110 -12 0 -35 -13 -51 -29z"/>
<path d="M8448 8343 c-31 -20 -59 -69 -51 -92 12 -38 27 -60 50 -70 39 -18 61
-13 100 22 48 45 50 88 5 129 -37 32 -65 35 -104 11z"/>
<path d="M2153 6308 c-310 -29 -541 -283 -479 -528 39 -152 174 -247 556 -390
388 -145 497 -232 461 -367 -69 -257 -549 -349 -806 -155 -75 57 -109 119
-113 209 l-4 73 -74 0 c-57 0 -76 -4 -80 -15 -3 -8 -1 -51 5 -95 14 -108 52
-180 135 -258 110 -102 250 -158 426 -169 280 -17 534 106 633 306 28 58 32
75 32 151 0 73 -4 92 -27 136 -65 124 -202 206 -583 350 -326 123 -415 188
-415 303 0 167 183 301 410 301 136 0 251 -44 335 -128 51 -51 73 -101 83
-192 l7 -65 49 -3 c88 -6 96 0 96 67 0 153 -88 297 -234 385 -118 71 -253 98
-413 84z"/>
<path d="M4444 6307 c-3 -8 -4 -43 -2 -78 l3 -64 293 -5 292 -5 3 -770 2 -770
75 0 75 0 3 772 2 773 288 2 287 3 0 75 0 75 -658 3 c-548 2 -658 0 -663 -11z"/>
<path d="M6007 6313 c-4 -3 -7 -388 -7 -855 l0 -849 78 3 77 3 3 844 c2 669 0
846 -10 853 -16 9 -132 11 -141 1z"/>
<path d="M6345 6310 c-4 -7 84 -214 320 -745 51 -115 149 -338 218 -495 181
-411 193 -437 215 -449 60 -32 96 1 157 144 26 61 80 184 120 275 40 91 134
307 210 480 76 173 169 387 207 475 39 88 85 194 103 235 19 41 31 78 29 82
-3 4 -40 8 -82 8 l-77 0 -27 -67 c-15 -38 -48 -115 -73 -173 -26 -58 -60 -134
-75 -170 -16 -36 -46 -105 -68 -155 -21 -49 -96 -220 -166 -380 -70 -159 -131
-299 -136 -310 -5 -11 -25 -56 -45 -99 -20 -45 -39 -76 -44 -70 -7 8 -61 128
-416 934 -64 146 -132 299 -150 340 -18 41 -40 92 -49 113 l-15 38 -76 -2
c-41 -1 -78 -5 -80 -9z"/>
<path d="M3617 6293 c-8 -10 -40 -74 -70 -143 -30 -69 -64 -145 -75 -170 -11
-25 -61 -137 -110 -250 -88 -201 -171 -391 -237 -540 -18 -41 -65 -149 -105
-240 -39 -91 -87 -199 -106 -241 -19 -42 -34 -82 -34 -88 0 -8 24 -11 80 -9
l81 3 45 105 c63 146 97 223 204 465 51 116 154 350 229 520 75 171 140 316
145 324 6 9 32 -39 83 -155 108 -243 250 -565 293 -664 144 -330 248 -568 253
-582 5 -15 19 -18 87 -18 52 0 80 4 80 11 0 6 -32 84 -71 173 -113 257 -139
316 -175 399 -61 138 -101 229 -179 407 -42 96 -90 204 -105 240 -16 36 -59
133 -96 215 -36 83 -71 164 -77 180 -16 50 -46 75 -87 75 -23 0 -43 -7 -53
-17z"/>
<path d="M8617 6298 c-14 -11 -77 -152 -347 -768 -20 -47 -101 -231 -180 -410
-163 -371 -220 -502 -220 -507 0 -2 38 -3 84 -3 l84 0 15 43 c9 23 35 87 60
142 93 210 448 1015 495 1123 27 62 53 113 57 113 4 0 59 -116 122 -258 62
-142 120 -271 127 -288 19 -41 70 -157 161 -365 173 -395 204 -466 210 -487 6
-22 12 -23 91 -23 46 0 84 2 84 5 0 4 -61 143 -182 420 -22 50 -53 119 -68
155 -15 36 -47 108 -70 160 -23 52 -55 124 -70 160 -61 140 -179 409 -277 630
-36 80 -72 151 -81 158 -9 6 -30 12 -47 12 -17 0 -39 -6 -48 -12z"/>
<path d="M1941 3385 c-114 -70 -128 -81 -118 -91 4 -4 45 16 93 45 48 28 89
49 92 46 3 -3 -7 -30 -22 -60 -15 -30 -25 -59 -21 -65 3 -5 35 -10 71 -10 35
0 64 -3 64 -7 0 -5 -38 -30 -85 -58 -73 -43 -105 -75 -76 -75 18 0 236 141
236 153 0 8 -28 13 -87 15 -49 1 -88 5 -88 9 0 3 16 39 35 80 19 41 35 77 35
79 0 13 -37 -4 -129 -61z"/>
<path d="M8904 3409 c-4 -6 -1 -15 7 -20 76 -44 153 -97 157 -107 3 -9 -28
-12 -122 -12 -68 0 -127 -4 -130 -9 -3 -4 16 -22 42 -38 91 -59 184 -113 193
-113 20 0 7 20 -28 41 -97 58 -132 83 -127 90 3 5 61 9 130 9 94 0 124 3 124
13 0 7 -39 36 -87 65 -49 29 -102 61 -120 72 -23 15 -33 18 -39 9z"/>
<path d="M8593 2955 c-66 -29 -68 -107 -6 -176 47 -52 81 -69 138 -69 87 0
120 70 72 155 -44 77 -139 119 -204 90z m133 -50 c68 -52 88 -121 44 -157 -29
-23 -54 -23 -107 3 -81 39 -121 138 -70 174 30 22 89 14 133 -20z"/>
<path d="M2623 2589 c-46 -23 -84 -66 -101 -118 -29 -84 41 -156 122 -125 31
12 15 22 -30 21 -35 -2 -49 3 -60 17 -20 28 -17 65 9 111 29 51 79 85 127 85
47 0 65 -20 63 -72 -2 -46 20 -49 25 -4 7 59 -33 106 -91 106 -12 0 -41 -9
-64 -21z"/>
<path d="M2995 2193 c-43 -60 -80 -116 -83 -125 -8 -32 14 -19 46 28 45 63 62
49 62 -52 0 -43 4 -74 10 -74 6 0 10 15 10 34 0 18 3 48 6 65 6 27 10 31 41
31 65 0 106 78 73 140 -9 16 -69 60 -82 60 -3 0 -41 -48 -83 -107z"/>
<path d="M7865 2262 c-40 -8 -65 -43 -65 -89 0 -80 44 -149 113 -178 52 -22
75 -19 108 14 21 22 29 39 29 66 0 46 -21 43 -26 -5 -5 -44 -20 -60 -58 -60
-84 0 -167 115 -136 190 14 35 36 44 85 34 23 -4 35 -2 35 5 0 6 -1 11 -3 11
-1 0 -16 4 -32 8 -17 5 -39 6 -50 4z"/>
<path d="M3463 1990 c-64 -38 -106 -136 -89 -205 18 -71 99 -88 161 -33 48 42
75 97 75 153 0 38 -5 52 -29 76 -35 34 -72 37 -118 9z m94 -18 c44 -28 32
-130 -21 -187 -40 -42 -78 -53 -110 -32 -51 34 -40 126 24 189 37 37 78 49
107 30z"/>
<path d="M7406 1972 c-2 -4 3 -50 13 -102 10 -52 22 -116 25 -142 11 -75 31
-74 23 1 l-7 61 45 22 45 22 39 -38 c28 -27 41 -34 46 -25 5 8 -1 20 -17 33
-14 12 -64 56 -111 99 -86 79 -92 83 -101 69z"/>
<path d="M3945 1790 c-12 -20 -95 -235 -95 -247 0 -28 19 -10 36 32 18 47 27
52 68 34 50 -23 116 25 116 84 0 42 -16 64 -60 87 -44 23 -56 24 -65 10z"/>
<path d="M6558 1635 c-3 -3 5 -49 18 -103 13 -53 23 -101 21 -106 -2 -5 -46
32 -98 82 -52 50 -98 87 -103 82 -9 -9 50 -257 65 -274 20 -23 18 8 -6 104
-14 56 -24 105 -21 107 3 3 46 -35 96 -83 50 -49 96 -90 101 -92 16 -6 10 35
-21 156 -30 112 -40 139 -52 127z"/>
<path d="M4932 1520 c-68 -42 -95 -173 -49 -241 51 -77 127 -70 169 15 12 25
20 48 17 50 -2 3 -28 8 -57 12 -36 4 -52 3 -52 -5 0 -6 12 -13 28 -17 52 -11
54 -12 43 -32 -6 -11 -22 -27 -37 -36 -57 -38 -104 10 -104 107 0 64 29 116
74 132 26 9 31 6 61 -28 32 -37 56 -37 36 0 -29 55 -82 72 -129 43z"/>
<path d="M5986 1529 c-33 -5 -63 -12 -67 -16 -9 -11 24 -270 36 -282 14 -13
147 8 142 23 -4 11 -43 11 -98 0 -24 -5 -27 -1 -33 33 -3 21 -6 53 -6 71 0 28
3 32 25 32 14 0 25 5 25 10 0 6 -13 10 -30 10 -26 0 -30 4 -31 30 -1 17 -2 36
-3 43 -1 7 22 16 57 22 32 6 59 14 59 20 -1 13 -8 14 -76 4z"/>
<path d="M5539 1430 c-23 -39 -45 -73 -50 -75 -4 -3 -28 26 -53 65 -25 38 -50
70 -56 70 -13 0 -14 -276 -1 -284 16 -10 18 15 13 117 -3 63 -1 97 5 97 6 0
26 -25 44 -55 18 -30 39 -55 45 -55 7 0 27 25 44 55 17 30 36 55 41 55 5 0 9
-47 9 -105 0 -87 3 -105 15 -105 17 0 18 22 8 183 -3 59 -10 107 -14 107 -4 0
-27 -32 -50 -70z"/>
</g>
</svg>
